<svg width="228" height="60" viewBox="0 0 228 60" fill="none" xmlns="http://www.w3.org/2000/svg">
<rect width="228" height="60" rx="30" fill="#0C122A" style="fill:#0C122A;fill:color(display-p3 0.0471 0.0706 0.1647);fill-opacity:1;"/>
<path d="M48.526 33.11H49.282V36.68H47.196V35H42.38V36.68H40.238V33.11H40.798C41.414 33.11 41.722 32.4147 41.722 31.024V25.2H48.526V33.11ZM43.892 27.104V30.912C43.892 31.7613 43.7427 32.494 43.444 33.11H46.37V27.104H43.892ZM60.2797 33.782C59.3277 34.7807 58.0583 35.28 56.4717 35.28C54.885 35.28 53.6157 34.7807 52.6637 33.782C51.7117 32.774 51.2357 31.5467 51.2357 30.1C51.2357 28.6533 51.7117 27.4307 52.6637 26.432C53.6157 25.424 54.885 24.92 56.4717 24.92C58.0583 24.92 59.3277 25.424 60.2797 26.432C61.2317 27.4307 61.7077 28.6533 61.7077 30.1C61.7077 31.5467 61.2317 32.774 60.2797 33.782ZM56.4717 33.25C57.3677 33.25 58.0677 32.9513 58.5717 32.354C59.085 31.7473 59.3417 30.996 59.3417 30.1C59.3417 29.204 59.085 28.4573 58.5717 27.86C58.0677 27.2533 57.3677 26.95 56.4717 26.95C55.5663 26.95 54.857 27.2533 54.3437 27.86C53.8397 28.4573 53.5923 29.204 53.6017 30.1C53.5923 30.996 53.8397 31.7473 54.3437 32.354C54.857 32.9513 55.5663 33.25 56.4717 33.25ZM73.2709 30.044L77.1629 35H74.4749L71.2129 30.506V35H68.9449V25.2H71.2129V29.274H71.4649C71.7729 29.274 72.0296 29.0967 72.2349 28.742L73.6769 26.474C73.9849 25.9793 74.2929 25.634 74.6009 25.438C74.9089 25.2327 75.2869 25.13 75.7349 25.13H76.6729V27.118H76.2109C75.8936 27.118 75.5762 27.3653 75.2589 27.86L74.2089 29.54C74.1249 29.6987 74.0036 29.8247 73.8449 29.918C73.6862 30.002 73.5322 30.044 73.3829 30.044H73.2709ZM85.2551 35L84.9191 33.81H81.4471L81.1111 35H78.7171L82.0351 25.2H84.3171L87.6491 35H85.2551ZM81.9511 32.032H84.4151L83.1831 27.678L81.9511 32.032ZM90.6889 35V27.216H88.0009V25.2H95.6449V27.216H92.9429V35H90.6889ZM102.568 35L102.232 33.81H98.7601L98.4241 35H96.0301L99.3481 25.2H101.63L104.962 35H102.568ZM99.2641 32.032H101.728L100.496 27.678L99.2641 32.032ZM106.658 33.152H107.008C107.801 33.152 108.198 32.4333 108.198 30.996V25.2H115.338V35H113.07V27.118H110.466V30.982C110.466 32.3913 110.205 33.4367 109.682 34.118C109.159 34.79 108.431 35.126 107.498 35.126H106.658V33.152ZM126.973 33.782C126.021 34.7807 124.751 35.28 123.165 35.28C121.578 35.28 120.309 34.7807 119.357 33.782C118.405 32.774 117.929 31.5467 117.929 30.1C117.929 28.6533 118.405 27.4307 119.357 26.432C120.309 25.424 121.578 24.92 123.165 24.92C124.751 24.92 126.021 25.424 126.973 26.432C127.925 27.4307 128.401 28.6533 128.401 30.1C128.401 31.5467 127.925 32.774 126.973 33.782ZM123.165 33.25C124.061 33.25 124.761 32.9513 125.265 32.354C125.778 31.7473 126.035 30.996 126.035 30.1C126.035 29.204 125.778 28.4573 125.265 27.86C124.761 27.2533 124.061 26.95 123.165 26.95C122.259 26.95 121.55 27.2533 121.037 27.86C120.533 28.4573 120.285 29.204 120.295 30.1C120.285 30.996 120.533 31.7473 121.037 32.354C121.55 32.9513 122.259 33.25 123.165 33.25ZM130.974 25.2H136.84V27.216H133.242V35H130.974V25.2ZM144.911 25.2H147.417L142.559 35H140.039L141.859 31.304L138.387 25.2H141.019L143.105 29.064L144.911 25.2Z" fill="white" style="fill:white;fill-opacity:1;"/>
<path d="M176 22L174.59 23.41L180.17 29H168V31H180.17L174.59 36.59L176 38L184 30L176 22Z" fill="white" style="fill:white;fill-opacity:1;"/>
</svg>
